# xmcd
#
# Track frame offsets: 
#        187
#        12775
#        24932
#        36117
#        47005
#        64802
#        82645
#        93282
#        103520
#        118182
#
# Disc length: 1734 seconds
#
# Revision: 3
# Processed by: cddbd v1.5.2PL0 Copyright (c) Steve Scherf et al.
# Submitted via: ExactAudioCopyFreeDBPlugin 1.0
#
DISCID=6a06c40a
DTITLE=Various Artist - Country Gold (Volume 6)
DYEAR=1900
DGENRE=Country
TTITLE0=Ernest Tubb - Willie Nelson - You Nearly Lose Your Mind
TTITLE1=Jean Shepard - Slippin'Away
TTITLE2=Waylon Jennings - Sally Was A Good Old Girl
TTITLE3=Patsy Cline - That's How Much I Love You
TTITLE4=Johnny Paycheck - In Memory Of A Memory
TTITLE5=Lynn Anderson - Go Tell It On The Mountain
TTITLE6=Waylon Jennings - Burning Memories
TTITLE7=Patsy Cline - Pick Me Up On Your Way Down
TTITLE8=Johnny Paycheck - I'm The Only Hell (Mama Ever Raised)
TTITLE9=Stonewall Jackson - Waterloo
EXTD=more info
EXTT0=
EXTT1=
EXTT2=
EXTT3=
EXTT4=
EXTT5=
EXTT6=
EXTT7=
EXTT8=
EXTT9=
PLAYORDER=
